<?xml version="1.0" encoding="UTF-8" standalone="no"?>
<!DOCTYPE svg PUBLIC "-//W3C//DTD SVG 20010904//EN"
              "http://www.w3.org/TR/2001/REC-SVG-20010904/DTD/svg10.dtd">

<svg xmlns="http://www.w3.org/2000/svg"
     width="362.913mm" height="362.913mm"
     viewBox="0 0 2143 2143">
  <path id="Selection"
        fill="#5e5c5d" stroke="none"
        d="M 905.00,2126.00
           C 873.46,2121.82 841.85,2114.59 811.00,2106.87
             743.27,2089.94 676.87,2066.69 614.00,2036.26
             614.00,2036.26 584.00,2021.74 584.00,2021.74
             493.63,1975.11 413.34,1917.35 339.00,1848.09
             339.00,1848.09 302.04,1812.00 302.04,1812.00
             196.61,1701.77 115.82,1570.67 64.69,1427.00
             39.97,1357.51 21.60,1279.24 12.85,1206.00
             12.85,1206.00 6.96,1143.00 6.96,1143.00
             6.96,1143.00 6.00,1132.00 6.00,1132.00
             6.00,1132.00 5.00,1111.00 5.00,1111.00
             5.00,1111.00 5.00,1079.00 5.00,1079.00
             5.00,1079.00 5.00,1033.00 5.00,1033.00
             5.00,1033.00 6.00,1011.00 6.00,1011.00
             6.00,1011.00 6.91,1001.00 6.91,1001.00
             6.91,1001.00 9.83,964.00 9.83,964.00
             13.12,931.14 17.72,898.41 24.20,866.00
             44.51,764.45 77.39,667.72 125.78,576.00
             172.95,486.58 232.12,405.03 301.96,332.00
             301.96,332.00 322.00,311.01 322.00,311.01
             322.00,311.01 332.00,301.96 332.00,301.96
             470.63,169.37 638.28,77.17 825.00,32.88
             878.14,20.28 932.55,11.65 987.00,7.91
             987.00,7.91 1017.00,6.00 1017.00,6.00
             1017.00,6.00 1033.00,5.00 1033.00,5.00
             1033.00,5.00 1111.00,5.00 1111.00,5.00
             1111.00,5.00 1132.00,6.00 1132.00,6.00
             1132.00,6.00 1143.00,6.96 1143.00,6.96
             1143.00,6.96 1206.00,12.85 1206.00,12.85
             1265.61,19.97 1327.63,33.33 1385.00,50.98
             1544.67,100.09 1681.83,181.09 1804.00,294.91
             1804.00,294.91 1841.96,332.00 1841.96,332.00
             1948.25,443.12 2030.24,576.73 2080.66,722.00
             2107.40,799.06 2125.06,879.87 2133.17,961.00
             2135.62,985.57 2137.96,1010.29 2138.00,1035.00
             2138.00,1035.00 2139.00,1052.00 2139.00,1052.00
             2139.00,1052.00 2139.00,1091.00 2139.00,1091.00
             2139.00,1091.00 2138.04,1103.00 2138.04,1103.00
             2138.04,1103.00 2138.04,1119.00 2138.04,1119.00
             2138.04,1119.00 2137.00,1137.00 2137.00,1137.00
             2137.00,1137.00 2136.09,1147.00 2136.09,1147.00
             2133.75,1181.23 2129.90,1215.11 2124.25,1249.00
             2074.97,1544.67 1902.21,1806.85 1650.00,1969.31
             1571.15,2020.10 1482.62,2062.12 1393.00,2089.98
             1338.00,2107.07 1295.19,2115.76 1239.00,2126.00
             1239.00,2126.00 1239.00,1380.00 1239.00,1380.00
             1239.00,1380.00 1478.00,1380.00 1478.00,1380.00
             1480.20,1380.00 1483.83,1380.21 1485.69,1378.98
             1488.77,1376.94 1489.45,1365.83 1490.08,1362.00
             1490.08,1362.00 1498.41,1308.00 1498.41,1308.00
             1498.41,1308.00 1523.58,1144.00 1523.58,1144.00
             1523.58,1144.00 1535.00,1071.00 1535.00,1071.00
             1535.00,1071.00 1239.00,1071.00 1239.00,1071.00
             1239.00,1071.00 1239.00,907.00 1239.00,907.00
             1239.00,907.00 1239.00,861.00 1239.00,861.00
             1239.00,861.00 1239.91,850.00 1239.91,850.00
             1243.17,805.38 1262.12,760.92 1300.00,735.03
             1324.28,718.43 1354.83,709.25 1384.00,706.92
             1384.00,706.92 1395.00,705.96 1395.00,705.96
             1395.00,705.96 1408.00,705.96 1408.00,705.96
             1408.00,705.96 1420.00,705.00 1420.00,705.00
             1420.00,705.00 1547.00,705.00 1547.00,705.00
             1547.00,705.00 1547.00,442.00 1547.00,442.00
             1547.00,442.00 1468.00,431.16 1468.00,431.16
             1468.00,431.16 1399.00,424.91 1399.00,424.91
             1399.00,424.91 1374.00,423.00 1374.00,423.00
             1374.00,423.00 1353.00,421.96 1353.00,421.96
             1353.00,421.96 1337.00,421.96 1337.00,421.96
             1337.00,421.96 1325.00,421.00 1325.00,421.00
             1325.00,421.00 1295.00,421.00 1295.00,421.00
             1295.00,421.00 1285.00,421.96 1285.00,421.96
             1285.00,421.96 1275.00,421.96 1275.00,421.96
             1275.00,421.96 1265.00,422.91 1265.00,422.91
             1265.00,422.91 1218.00,428.59 1218.00,428.59
             1167.03,437.14 1113.16,455.61 1070.00,484.33
             1054.65,494.55 1039.52,505.50 1026.00,518.09
             1004.58,538.04 985.54,560.38 969.69,585.00
             948.32,618.20 932.98,655.03 922.42,693.00
             912.97,726.99 908.31,761.93 905.91,797.00
             905.91,797.00 905.00,809.00 905.00,809.00
             905.00,809.00 905.00,845.00 905.00,845.00
             905.00,845.00 905.00,1071.00 905.00,1071.00
             905.00,1071.00 634.00,1071.00 634.00,1071.00
             634.00,1071.00 634.00,1380.00 634.00,1380.00
             634.00,1380.00 905.00,1380.00 905.00,1380.00
             905.00,1380.00 905.00,2126.00 905.00,2126.00 Z" />
</svg>
