<svg width="24" height="24" viewBox="0 0 24 24" fill="none" xmlns="http://www.w3.org/2000/svg">
<path fill-rule="evenodd" clip-rule="evenodd" d="M11.943 2.00001C14.1161 2.00187 16.2841 2.5443 18.0321 3.83532C19.7712 5.11978 20.9261 7.02473 21.5493 9.09497C22.1622 11.1311 22.1577 13.2994 21.4885 15.3177C20.8222 17.3272 19.5144 19.0364 17.8283 20.3166C16.1138 21.6186 14.0957 22.5414 11.943 22.5659C9.77476 22.5907 7.68298 21.7678 5.95944 20.4519C4.26527 19.1585 3.06 17.3434 2.43367 15.306C1.81478 13.2928 1.88257 11.1612 2.48265 9.14236C3.09522 7.0815 4.13046 5.12028 5.84633 3.82484C7.5818 2.5146 9.76851 1.99813 11.943 2.00001ZM16 17.5C16 18.3284 15.3284 19 14.5 19C13.6716 19 13 18.3284 13 17.5C13 16.6716 13.6716 16 14.5 16C15.3284 16 16 16.6716 16 17.5ZM7 15C7.55228 15 8 14.5523 8 14C8 13.4477 7.55228 13 7 13C6.44772 13 6 13.4477 6 14C6 14.5523 6.44772 15 7 15ZM19 9C19 9.55228 18.5523 10 18 10C17.4477 10 17 9.55228 17 9C17 8.44772 17.4477 8 18 8C18.5523 8 19 8.44772 19 9ZM10.5 8C11.3284 8 12 7.32843 12 6.5C12 5.67157 11.3284 5 10.5 5C9.67157 5 9 5.67157 9 6.5C9 7.32843 9.67157 8 10.5 8Z" fill="#5E5C5D"/>
</svg>
