<svg width="1440" height="1024" viewBox="0 0 1440 1024" fill="none" xmlns="http://www.w3.org/2000/svg">
  <path
    d="M1440 959V41C1393.45 41 1347.16 55.374 1300.44 54C1286.36 53.5858 1271.62 51.9244 1257.67 50C1246.63 48.4773 1236.81 41.9446 1225.56 40.4444C1195.76 36.4714 1167.29 31.7178 1137 36.8889C1106.39 42.1158 1072.12 48.595 1041 45.8889C1031.43 45.0568 1022.41 42 1012.67 42C970.627 42 928.357 49.3921 886.222 50.8889C846.014 52.3172 805.178 57.5333 764.889 55.8889C740.266 54.8839 714.917 51.4114 690.444 56C655.234 62.6019 620.048 65.7439 584.778 71.1111C556.376 75.4332 527.92 80.3369 499.222 77C472.717 73.918 446.553 70.4088 419.778 70C396.868 69.6502 378.693 62.9312 357 57.1111C337.908 51.9888 317.665 49.9308 298.222 46.4444C262.203 39.9859 224.72 40.7609 188.222 37.1111C160.669 34.3557 131.08 34 103.444 34C71.5368 34 31.5408 44.7421 0 41V959C35.206 959.749 72.9336 966.224 108 969.444C118.667 970.424 129.277 973 140 973C144.13 973 147.868 971.613 151.889 970.667C169.437 966.538 187.065 963.969 205.111 964.556C227.236 965.275 248.903 960.296 270.667 957.111C294.502 953.623 318.325 956.255 342.222 954.889C360.738 953.831 378.461 948.988 396.667 945.889C418.577 942.16 440.019 942.165 462.111 942.889C482.207 943.548 503.06 941.85 522.889 945C542.372 948.095 562.696 961 582 961C620.048 961 657.299 960.312 695.111 956.111C733.49 951.847 774.079 959 812.778 959C853.521 959 893.845 950.483 934.667 951C954.982 951.257 977.406 958.138 997.556 954.556C1027.08 949.307 1057.02 952.493 1086.67 948C1105.03 945.218 1122.74 945 1141.33 945C1166.06 945 1190.33 941 1215.11 941C1240.33 941 1263.59 954.655 1289.11 955C1314.12 955.338 1340.59 952.161 1365.11 958C1379.19 961.352 1393.14 957 1407.11 957C1419.26 957 1427.62 959 1440 959Z"
    fill="#8c8379"/>
</svg>
