<svg width="1440" height="1024" viewBox="0 0 1440 1024" fill="none" xmlns="http://www.w3.org/2000/svg">
  <path
    d="M1440 1024V95.8889C1434.39 92.1455 1419.64 87.0558 1406.5 82C1383.62 73.1976 1368.06 78.0838 1347 79.1111C1332.9 79.7989 1318.68 83.8831 1305.11 87.4444C1282.79 93.304 1260.25 96.0429 1237.33 98.5555C1217.5 100.731 1196.89 101.194 1177.33 105.444C1165.6 107.995 1154.85 111.547 1142.67 110.889C1131.3 110.274 1120.57 106.438 1109.33 105.222C1073.56 101.354 1046.93 85.56 1005.56 81.2222C955.577 75.9818 919.619 85.3935 877 86.8889C843.447 88.0662 810.173 91.767 776.885 95.4693L773.111 95.8889C736.9 99.9123 701.143 103.446 665.333 110.556C627.319 118.102 590.116 119.24 551.556 122.111C515.064 124.829 478.519 124.77 442.556 116.778C400.324 107.393 361.942 85.074 318.444 79.8889C286.766 76.1127 254.917 79.7328 223.111 75.4444C187.077 70.5859 147.342 73.3331 112.667 84.7778C76.6848 96.6535 38.3541 106.847 0 95.8889V1024H1440Z"
    fill="#5E5C5D"/>
</svg>
