<svg fill="none" height="1024" viewBox="0 0 1440 1024" width="1440" xmlns="http://www.w3.org/2000/svg">
  <path
    d="M1440 1024V54.9561C1430.4 54.9561 1422.67 58.3421 1412.91 58.3421C1403.26 58.3421 1393.07 61.728 1383.28 61.728C1375.62 61.728 1369.86 66.807 1362.12 66.807H1348.58C1338.57 66.807 1330.44 65.114 1320.55 65.114C1314.92 65.114 1306.25 64.602 1300.8 63.0448C1294.28 61.1818 1284.05 62.3723 1278.32 59.1886C1269.48 54.2784 1248.59 58.3421 1238.53 58.3421C1223.96 58.3421 1207.92 58.9218 1194.42 63.421C1183.15 67.1792 1169.24 65.114 1157.27 65.114H1139.31C1133.8 65.114 1121.8 64.5655 1117.02 61.728C1107.62 56.1586 1095.59 52.0658 1085.32 49.7831C1069.04 46.1651 1050.48 48.1841 1033.68 48.1841C1009.56 48.1841 985.893 49.8162 961.889 51.4716L961.889 51.4716L961.825 51.4761C930.599 53.6296 899.19 53.2631 867.77 53.2631C840.432 53.2631 812.859 54.4385 785.565 53.169C771.095 52.496 755.779 50.1644 742.112 46.1149C738.81 45.1364 735.205 39.8883 732.33 39.7192C717.774 38.8629 702.894 39.7192 688.313 39.7192C673.951 39.7192 657.373 40.2872 643.448 43.9517C626.338 48.4543 608.84 49.7473 591.812 53.6393C578.797 56.6142 565.198 57.0643 552.027 59.1886C538.91 61.3043 524.561 63.775 511.489 65.02C487.429 67.3114 463.713 68.5 439.443 68.5C422.742 68.5 404.07 69.2641 388.277 63.7973C384.329 62.4306 377.299 58.0347 375.11 54.2036C372.661 49.9179 362.276 49.0248 358.18 47.4317C346.67 42.9557 332.72 44.7981 320.558 44.7981C280.486 44.7981 242.705 56.6491 202.519 56.6491C195.261 56.6491 186.717 57.885 179.663 56.2729C173.25 54.807 166.681 51.9165 160.1 51.5701C155.602 51.3334 147.498 48.2586 144.017 45.5506C141.172 43.3385 135.764 38.0262 132.166 38.0262C123.568 38.0262 114.493 31.2542 105.078 31.2542C91.4255 31.2542 77.8775 27.8683 63.9758 27.8683C43.5033 27.8683 20.416 56.6491 0 56.6491V1024H1440Z"
    fill="#5e5c5d"/>
</svg>
