<svg width="1440" height="1024" viewBox="0 0 1440 1024" xmlns="http://www.w3.org/2000/svg">
  <path
    d="M1440 0H0V512.171C37.6784 523.892 76.9462 530.057 115 539.464C146.849 547.336 169.577 537.9 200.333 526.543C215.792 520.835 231.284 520.478 245.778 511.01C260.571 501.346 271.722 493.457 288.222 490.685C312.466 486.613 334.286 480.113 358.667 486.04C375.8 490.205 393.711 490.337 410.667 495.621C430.175 501.701 446.197 508.445 466.556 509.413C480.679 510.084 495.036 508.279 509.111 510.139C524.866 512.22 540.506 517.061 556.444 515.945C582.713 514.107 609.71 506.425 636 510.139C653.266 512.577 670.46 512.921 687.778 510.864C728.654 506.009 766.02 520.013 806 525.237C828.584 528.187 848.992 542.867 871.333 548.174C885.924 551.64 902.983 549.219 917.667 548.609L918.727 548.566C939.691 547.697 962.37 546.758 982.889 540.915C1002.14 535.434 1021.24 530.25 1040.22 523.204C1055.02 517.71 1070.45 520.749 1085.67 519.865C1116.03 518.102 1143 505.757 1173.78 509.413C1188.85 511.203 1202.29 518.054 1217.33 520.591C1256.85 527.253 1291.36 532.716 1330.22 512.752C1341.44 506.99 1351.98 492.756 1364.33 491.411C1374.61 490.292 1385.67 490.653 1396 491.266C1412.44 492.242 1425.24 507.051 1440 513.478V0Z"
    fill="#D7AE0D"/>
</svg>
