<svg width="24" height="24" viewBox="0 0 24 24" xmlns="http://www.w3.org/2000/svg">
    <path fill-rule="evenodd" fill="#5e5c5d" d="M12 23C12 20.5 12 18 12 16M12 16C12 15 9.99691 12 9.99997 11M12 16C12 14 13 13 15 13M12 6.00002C12 8.00001 9.99997 9.00001 9.99997 11M12 6.00002C15 6.00002 15 6.00003 15 9.00002C12 9.00002 12 9.00001 12 6.00002ZM12 6.00002C12 4.99999 11 4.00002 9.99997 4.00001M9.99997 11C5.99997 11 5.99997 11 5.99997 15C9.99997 15 9.99997 15 9.99997 11ZM15 13C14 15 14 15 16 16C17 14 17 14 15 13ZM15 13H16.5M4.5 5.50001C4.5 4.94772 4.94771 4.50001 5.5 4.50001C6.05228 4.50001 6.5 4.94772 6.5 5.50001C6.5 6.05229 6.05228 6.50001 5.5 6.50001C4.94771 6.50001 4.5 6.05229 4.5 5.50001ZM6.5 4C6.5 3.44772 6.94771 3 7.49999 3C8.05228 3 8.5 3.44772 8.5 4.00001C8.5 4.55229 8.05228 5 7.49999 5C6.94771 5 6.5 4.55228 6.5 4ZM4 3C4 2.44772 4.44771 2 5 2C5.55228 2 6 2.44771 6 3C6 3.55229 5.55228 4 5 4C4.44771 4 4 3.55228 4 3ZM2 5.00001C2 4.44772 2.44772 4.00001 3 4.00001C3.55228 4.00001 4 4.44772 4 5.00001C4 5.55229 3.55228 6.00001 3 6.00001C2.44772 6.00001 2 5.55229 2 5.00001ZM18 13C18 12.4477 18.4477 12 19 12C19.5523 12 20 12.4477 20 13C20 13.5523 19.5523 14 19 14C18.4477 14 18 13.5523 18 13ZM20 12C20 11.4477 20.4477 11 21 11C21.5523 11 22 11.4477 22 12C22 12.5523 21.5523 13 21 13C20.4477 13 20 12.5523 20 12ZM20.5 14.5C20.5 13.9477 20.9477 13.5 21.5 13.5C22.0523 13.5 22.5 13.9477 22.5 14.5C22.5 15.0523 22.0523 15.5 21.5 15.5C20.9477 15.5 20.5 15.0523 20.5 14.5Z" stroke="black" stroke-linecap="round" stroke-linejoin="round"/>
</svg>
